<?xml version="1.0" encoding="UTF-8"?>
<svg version="1.1" xmlns="http://www.w3.org/2000/svg" width="500" height="500">
<path d="M0 0 C12.07647389 0.34802518 20.75516145 2.76401132 31 9 C31 9.66 31 10.32 31 11 C31.61875 11.309375 32.2375 11.61875 32.875 11.9375 C34.25 12.625 35.625 13.3125 37 14 C37 14.66 37 15.32 37 16 C37.66 16 38.32 16 39 16 C39.9375 18.0625 39.9375 18.0625 40 21 C37.97918863 23.68701293 35.66372563 25.95052596 33 28 C32.34 28 31.68 28 31 28 C31 28.66 31 29.32 31 30 C29.0625 29.6875 29.0625 29.6875 27 29 C26.505 27.515 26.505 27.515 26 26 C25.34 26 24.68 26 24 26 C24 25.34 24 24.68 24 24 C23.34 23.7525 22.68 23.505 22 23.25 C19 22 19 22 17.2734375 21.01171875 C9.72766992 16.7419943 1.50547993 15.97427726 -6.87109375 18.20703125 C-16.03536558 21.62051232 -22.6021464 28.39619915 -27 37 C-30.14100895 44.82931295 -28.95556084 52.9503327 -26.125 60.734375 C-22.01725118 69.0069247 -15.39175323 73.66118522 -7 77 C1.0294796 79.6764932 9.37065319 78.19186958 17 75 C18.010625 74.608125 19.02125 74.21625 20.0625 73.8125 C21.0215625 73.4103125 21.0215625 73.4103125 22 73 C22 72.34 22 71.68 22 71 C24.25 68.375 24.25 68.375 27 66 C32.32626689 66 33.242121 67.41293369 37 71 C37 71.66 37 72.32 37 73 C37.66 73 38.32 73 39 73 C39.75 74.6875 39.75 74.6875 40 77 C38.1875 79.75 38.1875 79.75 36 82 C35.34 82 34.68 82 34 82 C34 82.66 34 83.32 34 84 C22.38286922 92.82527193 10.59362566 96.08795667 -4 95 C-9.9783654 94.17222633 -15.4143977 92.23424092 -21 90 C-21 89.34 -21 88.68 -21 88 C-21.61875 87.855625 -22.2375 87.71125 -22.875 87.5625 C-25 87 -25 87 -27 86 C-27 85.34 -27 84.68 -27 84 C-27.86818359 83.62488281 -27.86818359 83.62488281 -28.75390625 83.2421875 C-37.02606731 78.66732277 -41.27738405 69.65861982 -44 61 C-44.37268276 59.00695743 -44.71742077 57.00779981 -45 55 C-48.3 55 -51.6 55 -55 55 C-55.02685412 52.68756208 -55.04632841 50.3750373 -55.0625 48.0625 C-55.07410156 46.77472656 -55.08570313 45.48695313 -55.09765625 44.16015625 C-55 41 -55 41 -54 40 C-52.48071962 39.92820036 -50.95832518 39.91607993 -49.4375 39.9375 C-48.61121094 39.94652344 -47.78492188 39.95554688 -46.93359375 39.96484375 C-46.29550781 39.97644531 -45.65742188 39.98804688 -45 40 C-44.85304687 39.32195312 -44.70609375 38.64390625 -44.5546875 37.9453125 C-42.8219974 30.75564438 -40.10338476 25.12650203 -36 19 C-35.34 18.01 -34.68 17.02 -34 16 C-33.34 16 -32.68 16 -32 16 C-32 15.34 -32 14.68 -32 14 C-31.34 14 -30.68 14 -30 14 C-29.67 13.01 -29.34 12.02 -29 11 C-22.2868118 5.1454754 -13.01439619 0.57846349 -4 1 C-4 2.65 -4 4.3 -4 6 C-4.59425781 6.13535156 -5.18851563 6.27070313 -5.80078125 6.41015625 C-16.69106207 9.23858066 -25.33146452 14.92196824 -32 24 C-32.67675781 24.90878906 -33.35351562 25.81757813 -34.05078125 26.75390625 C-36.25645539 30.42708302 -37.27325119 33.7438329 -38.25 37.875 C-38.42273438 38.56335938 -38.59546875 39.25171875 -38.7734375 39.9609375 C-39.19271642 41.63805318 -39.59785544 43.31869349 -40 45 C-42.64 45.33 -45.28 45.66 -48 46 C-48.33 47.32 -48.66 48.64 -49 50 C-46.03 50 -43.06 50 -40 50 C-39.78085938 50.97839844 -39.56171875 51.95679688 -39.3359375 52.96484375 C-37.59874139 60.28441681 -35.84362248 66.29232228 -31.171875 72.36328125 C-30 74 -30 74 -30 76 C-29.34 76 -28.68 76 -28 76 C-28 76.66 -28 77.32 -28 78 C-27.34 78 -26.68 78 -26 78 C-26 78.66 -26 79.32 -26 80 C-25.2265625 80.37125 -25.2265625 80.37125 -24.4375 80.75 C-22.46228213 81.76293224 -20.53467618 82.86834004 -18.625 84 C-8.60714213 89.73362503 2.95903145 90.26913867 13.9921875 87.578125 C16.40155388 86.88437748 18.68328827 85.95394012 21 85 C21.99 85 22.98 85 24 85 C24 84.34 24 83.68 24 83 C26 81.66666667 28 80.33333333 30 79 C31.83300909 76.89424357 31.83300909 76.89424357 33 75 C32.34 75 31.68 75 31 75 C31 74.34 31 73.68 31 73 C28.58186123 74.40408058 26.22286326 75.8411146 23.9453125 77.46484375 C14.6474953 84.04409502 6.25574421 84.83901763 -5 84 C-10.93175777 82.80492527 -15.88682736 80.15493631 -21 77 C-21 76.34 -21 75.68 -21 75 C-21.66 75 -22.32 75 -23 75 C-23 74.34 -23 73.68 -23 73 C-23.66 73 -24.32 73 -25 73 C-25 72.34 -25 71.68 -25 71 C-25.66 71 -26.32 71 -27 71 C-27.98163422 69.06374902 -28.96022454 67.12595461 -29.9375 65.1875 C-30.48277344 64.10855469 -31.02804688 63.02960938 -31.58984375 61.91796875 C-35.17693605 54.49537056 -35.20057671 45.00457793 -33.28125 37.00390625 C-32.33232904 34.55125168 -31.27287749 32.30018376 -30 30 C-29.35224609 28.82050781 -29.35224609 28.82050781 -28.69140625 27.6171875 C-26.38032114 23.68079921 -26.38032114 23.68079921 -25 22 C-24.34 22 -23.68 22 -23 22 C-23 21.34 -23 20.68 -23 20 C-20.98828125 18.5625 -20.98828125 18.5625 -18.3125 17 C-17.44238281 16.484375 -16.57226562 15.96875 -15.67578125 15.4375 C-6.79477678 10.66639103 3.11814493 9.48928773 12.8828125 12.234375 C17.69328406 13.97395512 23.02488376 15.996934 26.65625 19.6796875 C27.0996875 20.11539063 27.543125 20.55109375 28 21 C30.16299211 20.77242269 30.16299211 20.77242269 32 20 C30.0696712 14.20901359 22.99817802 11.3504644 17.75 8.6875 C12.08389673 6.26204549 6.08804142 6.18819293 0 6 C0 4.02 0 2.04 0 0 Z " fill="#D1D1D1" transform="translate(252,183)"/>
<path d="M0 0 C1.16273438 -0.01417969 2.32546875 -0.02835937 3.5234375 -0.04296875 C6.625 0.1875 6.625 0.1875 9.625 2.1875 C9.625 2.8475 9.625 3.5075 9.625 4.1875 C10.615 4.1875 11.605 4.1875 12.625 4.1875 C12.955 2.8675 13.285 1.5475 13.625 0.1875 C14.945 0.1875 16.265 0.1875 17.625 0.1875 C17.955 4.1475 18.285 8.1075 18.625 12.1875 C19.945 12.1875 21.265 12.1875 22.625 12.1875 C24.36456658 10.44793342 23.99690386 7.9938378 24.1875 5.625 C24.27128906 4.61308594 24.35507813 3.60117187 24.44140625 2.55859375 C24.53228516 1.38490234 24.53228516 1.38490234 24.625 0.1875 C25.945 0.1875 27.265 0.1875 28.625 0.1875 C29.12 1.6725 29.12 1.6725 29.625 3.1875 C30.285 2.6925 30.945 2.1975 31.625 1.6875 C35.63534059 -0.31767029 38.16828182 -0.10474382 42.625 0.1875 C43.285 0.5175 43.945 0.8475 44.625 1.1875 C44.295 2.5075 43.965 3.8275 43.625 5.1875 C41.15 4.6925 41.15 4.6925 38.625 4.1875 C39.93701173 5.74999809 39.93701173 5.74999809 41.625 7.1875 C42.615 7.1875 43.605 7.1875 44.625 7.1875 C44.955 6.1975 45.285 5.2075 45.625 4.1875 C46.285 4.1875 46.945 4.1875 47.625 4.1875 C47.625 3.5275 47.625 2.8675 47.625 2.1875 C51.63822046 -0.48798031 54.90873655 -0.39990465 59.625 0.1875 C62.1875 1.6875 62.1875 1.6875 63.625 3.1875 C64.12 2.6925 64.615 2.1975 65.125 1.6875 C68.56576384 -0.37695831 71.75688043 -0.54016606 75.625 0.1875 C78.625 2.1875 78.625 2.1875 80.625 4.1875 C81.285 2.8675 81.945 1.5475 82.625 0.1875 C84.56219378 0.13343878 86.49981921 0.09467975 88.4375 0.0625 C89.51644531 0.03929687 90.59539062 0.01609375 91.70703125 -0.0078125 C94.625 0.1875 94.625 0.1875 97.625 2.1875 C98.42578125 4.90234375 98.42578125 4.90234375 98.9375 8.125 C99.11925781 9.18589844 99.30101562 10.24679687 99.48828125 11.33984375 C99.625 14.1875 99.625 14.1875 97.625 17.1875 C96.305 17.1875 94.985 17.1875 93.625 17.1875 C93.57601562 16.33285156 93.52703125 15.47820312 93.4765625 14.59765625 C93.36441406 12.94056641 93.36441406 12.94056641 93.25 11.25 C93.14558594 9.59677734 93.14558594 9.59677734 93.0390625 7.91015625 C92.83410156 6.56244141 92.83410156 6.56244141 92.625 5.1875 C91.635 4.6925 91.635 4.6925 90.625 4.1875 C88.4456856 5.94614246 87.68813581 6.88146 87.11328125 9.66796875 C87.05527344 10.56128906 86.99726563 11.45460938 86.9375 12.375 C86.87175781 13.27605469 86.80601562 14.17710937 86.73828125 15.10546875 C86.70089844 15.79253906 86.66351563 16.47960937 86.625 17.1875 C85.305 17.1875 83.985 17.1875 82.625 17.1875 C81.635 14.7125 81.635 14.7125 80.625 12.1875 C79.6659375 13.425 79.6659375 13.425 78.6875 14.6875 C75.03637487 17.66801031 73.27293734 17.80538999 68.71875 17.5625 C66.06076593 17.08644315 64.4876741 16.13115994 62.625 14.1875 C62.13 14.6825 61.635 15.1775 61.125 15.6875 C57.46587407 17.88297556 54.86329452 17.46093836 50.625 17.1875 C49.965 16.8575 49.305 16.5275 48.625 16.1875 C48.625 15.5275 48.625 14.8675 48.625 14.1875 C47.635 13.8575 46.645 13.5275 45.625 13.1875 C45.315625 13.8475 45.00625 14.5075 44.6875 15.1875 C41.81502305 17.97293219 39.64867667 17.62753946 35.78125 17.62109375 C33.19235754 17.10050124 32.28314799 16.19109549 30.625 14.1875 C30.955 13.5275 31.285 12.8675 31.625 12.1875 C32.594375 12.373125 33.56375 12.55875 34.5625 12.75 C36.0784375 12.9665625 36.0784375 12.9665625 37.625 13.1875 C37.955 12.8575 38.285 12.5275 38.625 12.1875 C35.23399585 10.41492965 32.3614797 9.12161993 28.625 8.1875 C28.625 11.1575 28.625 14.1275 28.625 17.1875 C26.68818839 17.26857583 24.7504066 17.32672475 22.8125 17.375 C21.73355469 17.40980469 20.65460938 17.44460938 19.54296875 17.48046875 C16.625 17.1875 16.625 17.1875 14.80078125 15.80078125 C13.625 14.1875 13.625 14.1875 12.625 12.1875 C11.635 12.5175 10.645 12.8475 9.625 13.1875 C9.295 14.1775 8.965 15.1675 8.625 16.1875 C5.66835481 17.6658226 2.88270263 17.24782783 -0.375 17.1875 C-0.705 19.1675 -1.035 21.1475 -1.375 23.1875 C-3.025 22.8575 -4.675 22.5275 -6.375 22.1875 C-6.57090444 18.70875243 -6.75531592 15.22949096 -6.9375 11.75 C-6.99357422 10.75677734 -7.04964844 9.76355469 -7.10742188 8.74023438 C-7.15576172 7.79599609 -7.20410156 6.85175781 -7.25390625 5.87890625 C-7.3010376 5.00435791 -7.34816895 4.12980957 -7.39672852 3.22875977 C-7.34924362 -1.23215271 -3.60926215 0.01991867 0 0 Z M0 4.375 C-1.5733984 6.14819105 -1.5733984 6.14819105 -1.75 8.6875 C-1.31826323 11.56574511 -0.61697388 12.41260401 1.625 14.1875 C4.14863988 13.56216625 4.14863988 13.56216625 6.625 12.1875 C7.87653259 9.84654469 7.87653259 9.84654469 7.625 7.1875 C5.91618236 4.81169982 5.91618236 4.81169982 3.625 3.1875 C1.55868783 2.9908278 1.55868783 2.9908278 0 4.375 Z M53.625 3.1875 C52.635 3.8475 51.645 4.5075 50.625 5.1875 C50.125 8.6875 50.125 8.6875 50.625 12.1875 C53.30389722 14.46462366 53.30389722 14.46462366 55.5625 13.875 C56.5834375 13.5346875 56.5834375 13.5346875 57.625 13.1875 C58.346875 13.043125 59.06875 12.89875 59.8125 12.75 C60.410625 12.564375 61.00875 12.37875 61.625 12.1875 C62.97939668 9.47870665 62.69001451 7.17816732 62.625 4.1875 C61.8825 4.208125 61.14 4.22875 60.375 4.25 C57.625 4.1875 57.625 4.1875 55.5 3.5625 C54.88125 3.43875 54.2625 3.315 53.625 3.1875 Z M69.625 3.1875 C69.625 3.8475 69.625 4.5075 69.625 5.1875 C68.965 5.1875 68.305 5.1875 67.625 5.1875 C66.84697813 7.4890411 66.84697813 7.4890411 66.625 10.1875 C67.95653266 12.49254044 67.95653266 12.49254044 69.625 14.1875 C72.06217258 13.91715366 72.06217258 13.91715366 74.625 13.1875 C76.86680162 10.50723545 76.86680162 10.50723545 76.4375 8.1875 C75.50050323 5.88104642 74.59553324 4.7032948 72.625 3.1875 C71.635 3.1875 70.645 3.1875 69.625 3.1875 Z " fill="#DFDFDF" transform="translate(201.375,304.8125)"/>
<path d="M0 0 C5.62541841 0.45003347 8.61487125 1.68441485 13 5 C14.299375 4.0409375 14.299375 4.0409375 15.625 3.0625 C18.9598812 1.02451704 21.16047478 0.36566907 25 0 C25 1.65 25 3.3 25 5 C26.65 5 28.3 5 30 5 C30 12.59 30 20.18 30 28 C26.71223958 28.9765625 23.42447917 29.953125 20.13671875 30.9296875 C16.89088275 31.88765453 16.89088275 31.88765453 14 34 C10.16492794 33.49806828 6.77967169 31.57577513 3.31640625 29.9375 C0.62063587 28.76285468 0.62063587 28.76285468 -4 28 C-4 20.41 -4 12.82 -4 5 C-2.68 5 -1.36 5 0 5 C0 3.35 0 1.7 0 0 Z M5 6 C4.86510609 8.26921536 4.76806005 10.5407067 4.6875 12.8125 C4.62949219 14.07707031 4.57148438 15.34164062 4.51171875 16.64453125 C4.75341797 18.30548828 4.75341797 18.30548828 5 20 C7.475 21.485 7.475 21.485 10 23 C10 18.38 10 13.76 10 9 C9.34 9 8.68 9 8 9 C8 8.34 8 7.68 8 7 C7.01 6.67 6.02 6.34 5 6 Z M18 7 C15.4389456 9.5610544 15.59808778 10.94185713 15.3125 14.5 C15.22613281 15.4796875 15.13976562 16.459375 15.05078125 17.46875 C14.80381874 19.99519063 14.80381874 19.99519063 16 22 C17.32 21.67 18.64 21.34 20 21 C20.33 16.71 20.66 12.42 21 8 C20.01 7.67 19.02 7.34 18 7 Z " fill="#E0E0E0" transform="translate(240,215)"/>
<path d="M0 0 C0.99 0.66 1.98 1.32 3 2 C3 2.99 3 3.98 3 5 C-0.04386724 5.08226668 -2.07175348 4.97608217 -5 4 C-5.99 4.495 -5.99 4.495 -7 5 C-7 7.31 -7 9.62 -7 12 C-5.05396726 12.59070014 -5.05396726 12.59070014 -3 13 C-2.67 12.67 -2.34 12.34 -2 12 C-0.33382885 11.95936168 1.33388095 11.957279 3 12 C3.12375 11.360625 3.2475 10.72125 3.375 10.0625 C3.58125 9.381875 3.7875 8.70125 4 8 C4.66 7.67 5.32 7.34 6 7 C6 6.34 6 5.68 6 5 C5.34 4.67 4.68 4.34 4 4 C4.33 3.01 4.66 2.02 5 1 C8.43297971 -0.71648986 12.23809896 -0.39563665 16 0 C18.4375 1.4375 18.4375 1.4375 20 3 C20.66 3.33 21.32 3.66 22 4 C22 2.68 22 1.36 22 0 C25.62498334 -0.02893932 29.24993713 -0.04677792 32.875 -0.0625 C34.42380859 -0.07506836 34.42380859 -0.07506836 36.00390625 -0.08789062 C36.99003906 -0.09111328 37.97617188 -0.09433594 38.9921875 -0.09765625 C40.35899658 -0.10551147 40.35899658 -0.10551147 41.75341797 -0.11352539 C44 0 44 0 46 1 C46 1.66 46 2.32 46 3 C46.99 3 47.98 3 49 3 C49.02705729 4.77074917 49.04642195 6.54161711 49.0625 8.3125 C49.07410156 9.29863281 49.08570313 10.28476562 49.09765625 11.30078125 C49 14 49 14 48 17 C46.35 17 44.7 17 43 17 C42.93941406 16.32453125 42.87882812 15.6490625 42.81640625 14.953125 C42.73261719 14.06109375 42.64882812 13.1690625 42.5625 12.25 C42.48128906 11.36828125 42.40007812 10.4865625 42.31640625 9.578125 C42.03761535 7.30649548 41.61209423 5.20148177 41 3 C38.37200898 4.86502588 37.13634249 6.30410791 36.51171875 9.4921875 C36.27406427 11.9964272 36.0959336 14.48653979 36 17 C34.68 17 33.36 17 32 17 C31.505 11.06 31.505 11.06 31 5 C30.01 5 29.02 5 28 5 C27.34 8.96 26.68 12.92 26 17 C24.02 16.67 22.04 16.34 20 16 C18.32995171 16.31595508 16.66362417 16.65179959 15 17 C6.78513732 17.52342488 6.78513732 17.52342488 3 15 C2.01 15.66 1.02 16.32 0 17 C-4.90487343 17.55377603 -6.89979388 17.75639171 -11 14.9375 C-13.52975133 11.22192774 -13.7878128 9.4117517 -13 5 C-9.2596085 -0.49370002 -6.18773198 -0.6986149 0 0 Z M10 3 C11.485 3.99 11.485 3.99 13 5 C13 4.34 13 3.68 13 3 C12.01 3 11.02 3 10 3 Z M9 10 C9 10.66 9 11.32 9 12 C9.66 12 10.32 12 11 12 C11 11.34 11 10.68 11 10 C10.34 10 9.68 10 9 10 Z " fill="#E1E2E1" transform="translate(145,305)"/>
<path d="M0 0 C1.44700066 2.70552644 2.35891456 5.22566262 3.125 8.1875 C5.70424653 15.97656788 11.08319402 21.32193205 18.3125 25 C26.3065013 28.61424235 34.48176867 29.43884001 42.9375 26.625 C44.29921407 26.10259697 45.6545226 25.56290381 47 25 C48.010625 24.608125 49.02125 24.21625 50.0625 23.8125 C50.701875 23.544375 51.34125 23.27625 52 23 C52 22.34 52 21.68 52 21 C54.25 18.375 54.25 18.375 57 16 C62.32626689 16 63.242121 17.41293369 67 21 C67 21.66 67 22.32 67 23 C67.66 23 68.32 23 69 23 C69.75 24.6875 69.75 24.6875 70 27 C68.1875 29.75 68.1875 29.75 66 32 C65.34 32 64.68 32 64 32 C64 32.66 64 33.32 64 34 C51.64318428 43.38719388 39.06220247 46.28903314 23.625 44.765625 C22.076834 44.55337644 20.53628578 44.28582061 19 44 C19 43.67 19 43.34 19 43 C20.27875 43.02320313 21.5575 43.04640625 22.875 43.0703125 C24.58332745 43.08908533 26.29166127 43.10728389 28 43.125 C28.83917969 43.14175781 29.67835938 43.15851563 30.54296875 43.17578125 C36.05254877 43.21849117 40.71048292 42.55502007 46 41 C45.01732141 39.79438816 45.01732141 39.79438816 43.15234375 39.90234375 C41.1015625 39.93489583 39.05078125 39.96744792 37 40 C37 39.67 37 39.34 37 39 C37.59167969 38.87882812 38.18335938 38.75765625 38.79296875 38.6328125 C43.06210379 37.72744944 46.95624043 36.66507747 51 35 C51.99 35 52.98 35 54 35 C54 34.34 54 33.68 54 33 C56 31.66666667 58 30.33333333 60 29 C61.83300909 26.89424357 61.83300909 26.89424357 63 25 C62.34 25 61.68 25 61 25 C61 24.34 61 23.68 61 23 C58.58186123 24.40408058 56.22286326 25.8411146 53.9453125 27.46484375 C44.6474953 34.04409502 36.25574421 34.83901763 25 34 C19.06824223 32.80492527 14.11317264 30.15493631 9 27 C9 26.34 9 25.68 9 25 C8.34 25 7.68 25 7 25 C7 24.34 7 23.68 7 23 C6.34 23 5.68 23 5 23 C5 22.34 5 21.68 5 21 C4.34 21 3.68 21 3 21 C1.96709159 19.06891037 0.94901328 17.129882 -0.0625 15.1875 C-0.91521484 13.56908203 -0.91521484 13.56908203 -1.78515625 11.91796875 C-3.57873385 7.60992223 -1.43555687 4.30667061 0 0 Z " fill="#C9C9C9" transform="translate(222,233)"/>
<path d="M0 0 C1.32 0 2.64 0 4 0 C4 1.65 4 3.3 4 5 C5.32 5 6.64 5 8 5 C8 5.99 8 6.98 8 8 C6.68 8 5.36 8 4 8 C4 11.63 4 15.26 4 19 C5.32 18.67 6.64 18.34 8 18 C8 19.32 8 20.64 8 22 C4.625 22.1875 4.625 22.1875 1 22 C-1.13586678 18.79619983 -1.23132175 17.98060033 -1.125 14.3125 C-1.10695313 13.50425781 -1.08890625 12.69601562 -1.0703125 11.86328125 C-1.04710937 11.24839844 -1.02390625 10.63351562 -1 10 C-2.0725 10 -3.145 10 -4.25 10 C-6.83333333 10 -9.41666667 10 -12 10 C-14.28728734 11.83883881 -14.28728734 11.83883881 -14.125 14.625 C-14.08375 15.40875 -14.0425 16.1925 -14 17 C-10.01803543 18.05404945 -7.01804691 17.84098656 -3 17 C-3.375 18.9375 -3.375 18.9375 -4 21 C-7.21459986 22.60729993 -10.52388103 22.61930855 -14 22 C-16.9375 19.5625 -16.9375 19.5625 -19 17 C-19.33 16.67 -19.66 16.34 -20 16 C-21.69141656 16.08963062 -23.37959602 16.24577676 -25.0625 16.4375 C-26.44115234 16.59025391 -26.44115234 16.59025391 -27.84765625 16.74609375 C-28.91306641 16.87177734 -28.91306641 16.87177734 -30 17 C-26.61682513 17.97591583 -24.4342662 17.85856655 -21 17 C-21.375 18.9375 -21.375 18.9375 -22 21 C-25.12706959 22.5635348 -28.57982443 22.39958487 -32 22 C-32.99 21.34 -33.98 20.68 -35 20 C-35 19.34 -35 18.68 -35 18 C-35.66 18 -36.32 18 -37 18 C-37.60150376 10.90225564 -37.60150376 10.90225564 -35 7 C-30.8976444 4.26509627 -28.86581934 4.4506333 -24 5 C-21 7 -21 7 -19 10 C-18.443125 9.175 -17.88625 8.35 -17.3125 7.5 C-15.12368522 5.22798466 -13.9853313 4.99849051 -10.7734375 4.66796875 C-7.50330601 4.68577992 -4.26281229 4.78502701 -1 5 C-0.67 3.35 -0.34 1.7 0 0 Z M-29 8 C-29.99 9.485 -29.99 9.485 -31 11 C-29.68 11 -28.36 11 -27 11 C-27 10.01 -27 9.02 -27 8 C-27.66 8 -28.32 8 -29 8 Z " fill="#CCCCCA" transform="translate(357,300)"/>
<path d="M0 0 C1.74216797 0.02707031 1.74216797 0.02707031 3.51953125 0.0546875 C4.84017578 0.08949219 4.84017578 0.08949219 6.1875 0.125 C6.1875 1.115 6.1875 2.105 6.1875 3.125 C3.09874141 4.51992324 0.18857459 5.33555306 -3.125 5.9375 C-11.98284048 7.82402842 -18.52378668 13.53104296 -23.5 20.9375 C-27.30317193 27.31586044 -28.01571079 33.70685428 -28.46875 41.0234375 C-28.8125 43.125 -28.8125 43.125 -30.8125 45.125 C-31.4725 44.795 -32.1325 44.465 -32.8125 44.125 C-33.23438554 34.67945156 -33.52265539 26.63659914 -28.8125 18.125 C-28.38066406 17.33867187 -27.94882813 16.55234375 -27.50390625 15.7421875 C-25.19282114 11.80579921 -25.19282114 11.80579921 -23.8125 10.125 C-23.1525 10.125 -22.4925 10.125 -21.8125 10.125 C-21.8125 9.465 -21.8125 8.805 -21.8125 8.125 C-19.80078125 6.6875 -19.80078125 6.6875 -17.125 5.125 C-16.25488281 4.609375 -15.38476562 4.09375 -14.48828125 3.5625 C-9.39463446 0.8260591 -5.83715467 -0.11792232 0 0 Z " fill="#C9C9C9" transform="translate(250.8125,194.875)"/>
<path d="M0 0 C2.96404505 2.80804268 5.44499019 5.18315774 7 9 C7.66 9 8.32 9 9 9 C9 9.66 9 10.32 9 11 C9.66 11 10.32 11 11 11 C11 11.66 11 12.32 11 13 C11.515625 13.2475 12.03125 13.495 12.5625 13.75 C14.53771787 14.76293224 16.46532382 15.86834004 18.375 17 C26.6171539 21.71731787 35.15284765 22.15976066 44.4375 22.0625 C45.67790039 22.05573242 45.67790039 22.05573242 46.94335938 22.04882812 C48.96227146 22.03715811 50.98114574 22.01922718 53 22 C53 22.66 53 23.32 53 24 C44.75581297 29.49612469 33.17730134 27.06184271 23.9453125 25.6328125 C21.11604279 25.02493227 18.64456232 24.16126537 16 23 C16 22.34 16 21.68 16 21 C15.38125 20.855625 14.7625 20.71125 14.125 20.5625 C12 20 12 20 10 19 C10 18.34 10 17.68 10 17 C9.41605469 16.74863281 8.83210937 16.49726563 8.23046875 16.23828125 C5.71940668 14.84422403 4.20787775 13.33778756 2.3125 11.1875 C1.71050781 10.52105469 1.10851562 9.85460937 0.48828125 9.16796875 C-1.17013389 6.75216718 -1.62277986 4.88196185 -2 2 C-1.34 2 -0.68 2 0 2 C0 1.34 0 0.68 0 0 Z " fill="#C4C4C4" transform="translate(215,250)"/>
<path d="M0 0 C1.16273438 -0.01417969 2.32546875 -0.02835937 3.5234375 -0.04296875 C6.625 0.1875 6.625 0.1875 9.625 2.1875 C9.625 2.8475 9.625 3.5075 9.625 4.1875 C10.945 4.1875 12.265 4.1875 13.625 4.1875 C13.955 6.4975 14.285 8.8075 14.625 11.1875 C13.820625 11.455625 13.01625 11.72375 12.1875 12 C11.341875 12.391875 10.49625 12.78375 9.625 13.1875 C9.295 14.1775 8.965 15.1675 8.625 16.1875 C5.66835481 17.6658226 2.88270263 17.24782783 -0.375 17.1875 C-0.705 19.1675 -1.035 21.1475 -1.375 23.1875 C-3.025 22.8575 -4.675 22.5275 -6.375 22.1875 C-6.57090444 18.70875243 -6.75531592 15.22949096 -6.9375 11.75 C-6.99357422 10.75677734 -7.04964844 9.76355469 -7.10742188 8.74023438 C-7.15576172 7.79599609 -7.20410156 6.85175781 -7.25390625 5.87890625 C-7.3010376 5.00435791 -7.34816895 4.12980957 -7.39672852 3.22875977 C-7.34924362 -1.23215271 -3.60926215 0.01991867 0 0 Z M0 4.375 C-1.5733984 6.14819105 -1.5733984 6.14819105 -1.75 8.6875 C-1.31826323 11.56574511 -0.61697388 12.41260401 1.625 14.1875 C4.14863988 13.56216625 4.14863988 13.56216625 6.625 12.1875 C7.87653259 9.84654469 7.87653259 9.84654469 7.625 7.1875 C5.91618236 4.81169982 5.91618236 4.81169982 3.625 3.1875 C1.55868783 2.9908278 1.55868783 2.9908278 0 4.375 Z " fill="#BEBEBE" transform="translate(201.375,304.8125)"/>
<path d="M0 0 C2.31 0.33 4.62 0.66 7 1 C7 2.32 7 3.64 7 5 C6.34 5 5.68 5 5 5 C4.94617894 7.62527189 4.90641687 10.24944713 4.875 12.875 C4.85824219 13.62136719 4.84148437 14.36773437 4.82421875 15.13671875 C4.8066041 17.09194461 4.89679811 19.04742021 5 21 C5.66 21.66 6.32 22.32 7 23 C6 25.5 6 25.5 4 28 C1.36 28 -1.28 28 -4 28 C-4 20.41 -4 12.82 -4 5 C-2.68 5 -1.36 5 0 5 C0 3.35 0 1.7 0 0 Z " fill="#EBEBEB" transform="translate(240,215)"/>
<path d="M0 0 C1.93719378 -0.05406122 3.87481921 -0.09282025 5.8125 -0.125 C6.89144531 -0.14820313 7.97039062 -0.17140625 9.08203125 -0.1953125 C12 0 12 0 15 2 C15.80078125 4.71484375 15.80078125 4.71484375 16.3125 7.9375 C16.49425781 8.99839844 16.67601562 10.05929687 16.86328125 11.15234375 C17 14 17 14 15 17 C13.68 17 12.36 17 11 17 C10.95101563 16.14535156 10.90203125 15.29070312 10.8515625 14.41015625 C10.77679688 13.30542969 10.70203125 12.20070313 10.625 11.0625 C10.55539062 9.96035156 10.48578125 8.85820312 10.4140625 7.72265625 C10.27742188 6.82417969 10.14078125 5.92570312 10 5 C9.34 4.67 8.68 4.34 8 4 C5.8206856 5.75864246 5.06313581 6.69396 4.48828125 9.48046875 C4.43027344 10.37378906 4.37226563 11.26710938 4.3125 12.1875 C4.24675781 13.08855469 4.18101562 13.98960937 4.11328125 14.91796875 C4.07589844 15.60503906 4.03851563 16.29210937 4 17 C2.68 17 1.36 17 0 17 C-1.1577506 13.52674819 -1.06866652 10.63932552 -1 7 C-1.66 7 -2.32 7 -3 7 C-3 7.99 -3 8.98 -3 10 C-3.99 10.33 -4.98 10.66 -6 11 C-7.25664978 8.09399739 -8 6.20395416 -8 3 C-5.61435923 3.57584432 -3.33317216 4.22227595 -1 5 C-0.67 3.35 -0.34 1.7 0 0 Z " fill="#DBDBDB" transform="translate(284,305)"/>
<path d="M0 0 C1.32 0 2.64 0 4 0 C4 1.65 4 3.3 4 5 C5.32 5 6.64 5 8 5 C8 5.99 8 6.98 8 8 C6.68 8 5.36 8 4 8 C4 11.63 4 15.26 4 19 C5.32 18.67 6.64 18.34 8 18 C8 19.32 8 20.64 8 22 C4.625 22.1875 4.625 22.1875 1 22 C-1.13586678 18.79619983 -1.23132175 17.98060033 -1.125 14.3125 C-1.10695313 13.50425781 -1.08890625 12.69601562 -1.0703125 11.86328125 C-1.04710937 11.24839844 -1.02390625 10.63351562 -1 10 C-2.0725 10 -3.145 10 -4.25 10 C-6.83333333 10 -9.41666667 10 -12 10 C-12.99 10.495 -12.99 10.495 -14 11 C-14 10.34 -14 9.68 -14 9 C-14.99 9 -15.98 9 -17 9 C-17 9.66 -17 10.32 -17 11 C-17.66 10.67 -18.32 10.34 -19 10 C-17.34916877 7.5543241 -16.52854725 6.42418175 -14 5 C-9.63727911 4.55105172 -5.37080273 4.71202617 -1 5 C-0.67 3.35 -0.34 1.7 0 0 Z " fill="#CACAC9" transform="translate(357,300)"/>
<path d="M0 0 C1.91541138 -0.10841951 3.83259773 -0.18578079 5.75 -0.25 C6.81734375 -0.29640625 7.8846875 -0.3428125 8.984375 -0.390625 C12 0 12 0 14.40625 1.59375 C16.5857154 4.88431541 16.21479315 6.87672372 15.75 10.75 C15.62109375 11.92046875 15.4921875 13.0909375 15.359375 14.296875 C15.24078125 15.18890625 15.1221875 16.0809375 15 17 C13.68 17 12.36 17 11 17 C10.67 12.71 10.34 8.42 10 4 C8.35 4 6.7 4 5 4 C4.93941406 4.77085937 4.87882812 5.54171875 4.81640625 6.3359375 C4.73261719 7.33882813 4.64882813 8.34171875 4.5625 9.375 C4.48128906 10.37273437 4.40007812 11.37046875 4.31640625 12.3984375 C4 15 4 15 3 17 C2.01 17 1.02 17 0 17 C-2.45063476 12.09873048 -0.87459663 5.24757977 0 0 Z " fill="#C6C6C6" transform="translate(303,305)"/>
<path d="M0 0 C0.66 0.33 1.32 0.66 2 1 C2 1.66 2 2.32 2 3 C2.99 3 3.98 3 5 3 C5.02705729 4.77074917 5.04642195 6.54161711 5.0625 8.3125 C5.07410156 9.29863281 5.08570313 10.28476562 5.09765625 11.30078125 C5 14 5 14 4 17 C2.35 17 0.7 17 -1 17 C-1.06058594 16.32453125 -1.12117187 15.6490625 -1.18359375 14.953125 C-1.26738281 14.06109375 -1.35117188 13.1690625 -1.4375 12.25 C-1.51871094 11.36828125 -1.59992188 10.4865625 -1.68359375 9.578125 C-1.96238465 7.30649548 -2.38790577 5.20148177 -3 3 C-5.62799102 4.86502588 -6.86365751 6.30410791 -7.48828125 9.4921875 C-7.72593573 11.9964272 -7.9040664 14.48653979 -8 17 C-8.99 17 -9.98 17 -11 17 C-11 12 -11 7 -11 2 C-7.36178302 -0.32845886 -4.23971058 -0.23553948 0 0 Z " fill="#DADADA" transform="translate(189,305)"/>
<path d="M0 0 C0.33 0 0.66 0 1 0 C1 4.29 1 8.58 1 13 C2.98 12.67 4.96 12.34 7 12 C6.67 11.01 6.34 10.02 6 9 C8.97 9 11.94 9 15 9 C15.67126129 11.4363189 16.33716354 13.87388883 17 16.3125 C17.19078125 17.00279297 17.3815625 17.69308594 17.578125 18.40429688 C18.37716184 21.35787949 19 23.92559219 19 27 C18.34 27.66 17.68 28.32 17 29 C16.67 29.99 16.34 30.98 16 32 C15.17934931 30.12855305 14.3688416 28.25265664 13.5625 26.375 C12.88380859 24.80878906 12.88380859 24.80878906 12.19140625 23.2109375 C11.04198295 20.11314749 10.42688777 17.26789946 10 14 C6.7 14 3.4 14 0 14 C0 9.38 0 4.76 0 0 Z " fill="#B0B0B0" transform="translate(197,224)"/>
<path d="M0 0 C1.32 0 2.64 0 4 0 C4.33 3.96 4.66 7.92 5 12 C6.32 12 7.64 12 9 12 C10.73956658 10.26043342 10.37190386 7.8063378 10.5625 5.4375 C10.64628906 4.42558594 10.73007813 3.41367187 10.81640625 2.37109375 C10.87699219 1.58863281 10.93757812 0.80617188 11 0 C12.32 0 13.64 0 15 0 C15.38218767 1.65614657 15.71395102 3.32457024 16 5 C15.67 5.33 15.34 5.66 15 6 C14.76712992 7.68183948 14.58735834 9.3712416 14.4375 11.0625 C14.35371094 11.98160156 14.26992187 12.90070313 14.18359375 13.84765625 C14.12300781 14.55792969 14.06242188 15.26820313 14 16 C10.23326688 17.02653826 6.91815779 17.28495693 3 17 C1.296875 15.93359375 1.296875 15.93359375 0 14 C-0.29296875 10.64453125 -0.29296875 10.64453125 -0.1875 6.8125 C-0.16042969 5.54019531 -0.13335937 4.26789063 -0.10546875 2.95703125 C-0.07066406 1.98121094 -0.03585938 1.00539063 0 0 Z " fill="#CCCCCC" transform="translate(215,305)"/>
<path d="M0 0 C0.33 0.99 0.66 1.98 1 3 C1.99 3.33 2.98 3.66 4 4 C4 3.34 4 2.68 4 2 C4.99 2 5.98 2 7 2 C7 4.64 7 7.28 7 10 C10.98196457 11.05404945 13.98195309 10.84098656 18 10 C17.625 11.9375 17.625 11.9375 17 14 C13.78241676 15.60879162 10.47914605 15.61201039 7 15 C4 12.625 4 12.625 2 10 C2 9.34 2 8.68 2 8 C-0.31 8 -2.62 8 -5 8 C-5.33 5.69 -5.66 3.38 -6 1 C-4 0 -4 0 0 0 Z " fill="#E7E7E5" transform="translate(336,307)"/>
<path d="M0 0 C0.66 0.33 1.32 0.66 2 1 C1.67 2.32 1.34 3.64 1 5 C-1.475 4.505 -1.475 4.505 -4 4 C-2.7511573 5.5833253 -2.7511573 5.5833253 -1 7 C0.32 7 1.64 7 3 7 C3 7.66 3 8.32 3 9 C1.68 9 0.36 9 -1 9 C-1.33 10.32 -1.66 11.64 -2 13 C-4.38445037 11.80777482 -6.75952958 10.60504462 -9.125 9.375 C-11.76956354 7.8561815 -11.76956354 7.8561815 -14 8 C-14 10.97 -14 13.94 -14 17 C-15.32 16.67 -16.64 16.34 -18 16 C-17.01 16 -16.02 16 -15 16 C-15.04640625 15.32453125 -15.0928125 14.6490625 -15.140625 13.953125 C-15.43798376 6.60411554 -15.43798376 6.60411554 -13.1875 3.5 C-8.09374924 0.00714234 -6.08679141 -0.28984721 0 0 Z " fill="#D0D0D0" transform="translate(244,305)"/>
<path d="M0 0 C0 1.32 0 2.64 0 4 C-8.70739737 11.87903877 -20.811016 13.44234337 -32.0625 13.171875 C-35.4375752 12.9743972 -38.67752368 12.61813513 -42 12 C-42 11.67 -42 11.34 -42 11 C-40.72125 11.02320313 -39.4425 11.04640625 -38.125 11.0703125 C-36.41667255 11.08908533 -34.70833873 11.10728389 -33 11.125 C-32.16082031 11.14175781 -31.32164062 11.15851563 -30.45703125 11.17578125 C-24.94745123 11.21849117 -20.28951708 10.55502007 -15 9 C-15.98267859 7.79438816 -15.98267859 7.79438816 -17.84765625 7.90234375 C-19.8984375 7.93489583 -21.94921875 7.96744792 -24 8 C-24 7.67 -24 7.34 -24 7 C-23.40832031 6.87882812 -22.81664062 6.75765625 -22.20703125 6.6328125 C-17.93789621 5.72744944 -14.04375957 4.66507747 -10 3 C-9.01 3 -8.02 3 -7 3 C-7 2.34 -7 1.68 -7 1 C-4.53721199 -0.231394 -2.7204945 -0.07159196 0 0 Z " fill="#B6B6B6" transform="translate(283,265)"/>
<path d="M0 0 C0 1.65 0 3.3 0 5 C-7.10407088 7.27330268 -14.58902616 8.07696418 -22 7 C-24.421875 4.9765625 -24.421875 4.9765625 -26 3 C-23.97997919 0.97997919 -19.97351411 1.63162271 -17.1875 1.5 C-11.38838856 1.22164265 -5.76283432 -0.16007873 0 0 Z " fill="#D7D7D7" transform="translate(269,260)"/>
<path d="M0 0 C0.99 0.66 1.98 1.32 3 2 C3 2.99 3 3.98 3 5 C-0.04386724 5.08226668 -2.07175348 4.97608217 -5 4 C-5.99 4.495 -5.99 4.495 -7 5 C-7 7.31 -7 9.62 -7 12 C-6.34 12.33 -5.68 12.66 -5 13 C-5 13.99 -5 14.98 -5 16 C-3.35 16 -1.7 16 0 16 C0 16.33 0 16.66 0 17 C-7.12208505 17.60356653 -7.12208505 17.60356653 -11 14.9375 C-13.52975133 11.22192774 -13.7878128 9.4117517 -13 5 C-9.2596085 -0.49370002 -6.18773198 -0.6986149 0 0 Z " fill="#E8E8E8" transform="translate(145,305)"/>
<path d="M0 0 C10.44100625 -0.43504193 17.88060917 2.10393361 27 7 C25.02 7.99 25.02 7.99 23 9 C23 9.66 23 10.32 23 11 C18 9 18 9 15.8125 8 C11.64295905 6.51749655 7.34608883 5.7932667 3 5 C4.32 4.67 5.64 4.34 7 4 C7 3.01 7 2.02 7 1 C4.69 1 2.38 1 0 1 C0 0.67 0 0.34 0 0 Z " fill="#CCCCCC" transform="translate(250,194)"/>
<path d="M0 0 C0 1.65 0 3.3 0 5 C-0.6290625 5.17015625 -1.258125 5.3403125 -1.90625 5.515625 C-7.66354865 7.14570353 -12.72884406 9.16919403 -18 12 C-18 10.68 -18 9.36 -18 8 C-18.66 7.67 -19.32 7.34 -20 7 C-7.28358209 -0.68283582 -7.28358209 -0.68283582 0 0 Z " fill="#CECECE" transform="translate(248,184)"/>
<path d="M0 0 C2.20887757 0.11498267 4.41710787 0.24243505 6.625 0.375 C8.46964844 0.47941406 8.46964844 0.47941406 10.3515625 0.5859375 C13.83653855 0.9814487 16.73049601 1.76261849 20 3 C19.67 4.32 19.34 5.64 19 7 C12.73 6.67 6.46 6.34 0 6 C0 4.02 0 2.04 0 0 Z " fill="#D0D0D0" transform="translate(252,183)"/>
<path d="M0 0 C1.670625 0.2475 1.670625 0.2475 3.375 0.5 C11.34001707 1.48333544 19.06424817 1.02396798 27 0 C27 0.66 27 1.32 27 2 C19.54613628 6.96924248 8.48420964 5.57114993 0 4 C-0.33 3.34 -0.66 2.68 -1 2 C-0.67 1.34 -0.34 0.68 0 0 Z " fill="#FAFAFA" transform="translate(241,272)"/>
<path d="M0 0 C1.22589844 0.01353516 1.22589844 0.01353516 2.4765625 0.02734375 C3.41628906 0.04474609 3.41628906 0.04474609 4.375 0.0625 C4.375 0.3925 4.375 0.7225 4.375 1.0625 C2.065 1.3925 -0.245 1.7225 -2.625 2.0625 C-1.635 2.7225 -0.645 3.3825 0.375 4.0625 C1.035 3.7325 1.695 3.4025 2.375 3.0625 C2.045 4.3825 1.715 5.7025 1.375 7.0625 C0.715 7.0625 0.055 7.0625 -0.625 7.0625 C-0.955 9.3725 -1.285 11.6825 -1.625 14.0625 C-3.935 13.4025 -6.245 12.7425 -8.625 12.0625 C-8.25 10.125 -8.25 10.125 -7.625 8.0625 C-6.965 7.7325 -6.305 7.4025 -5.625 7.0625 C-5.625 6.4025 -5.625 5.7425 -5.625 5.0625 C-6.285 4.7325 -6.945 4.4025 -7.625 4.0625 C-7.295 3.0725 -6.965 2.0825 -6.625 1.0625 C-4.21954362 -0.14022819 -2.67503047 -0.03821472 0 0 Z " fill="#C1C1BF" transform="translate(156.625,304.9375)"/>
<path d="M0 0 C1.33333333 2 2.66666667 4 4 6 C7.93075644 5.42547254 7.93075644 5.42547254 11 3 C11.99 3 12.98 3 14 3 C14.33 2.01 14.66 1.02 15 0 C15.50709429 3.54966001 15.13037986 4.81073891 13.0625 7.8125 C9.46280971 10.38370735 7.42347574 10.72429879 3.09375 10.5078125 C1 10 1 10 -1.5625 7.5 C-2.2740625 6.2625 -2.2740625 6.2625 -3 5 C-2.34 4.67 -1.68 4.34 -1 4 C-0.34786708 1.97536745 -0.34786708 1.97536745 0 0 Z " fill="#C3C3C3" transform="translate(267,312)"/>
<path d="M0 0 C8.20234807 7.98066298 8.20234807 7.98066298 9 15 C4.62024357 14.27795772 2.98152437 12.1781532 0.26171875 8.85546875 C-1.26318449 6.61296399 -1.83617701 4.70307931 -2 2 C-1.34 2 -0.68 2 0 2 C0 1.34 0 0.68 0 0 Z " fill="#D3D3D3" transform="translate(215,250)"/>
<path d="M0 0 C0.66 0.33 1.32 0.66 2 1 C2.703125 3.6171875 2.703125 3.6171875 3.25 6.875 C3.44078125 7.94492187 3.6315625 9.01484375 3.828125 10.1171875 C4 13 4 13 2 16 C0.68 16 -0.64 16 -2 16 C-2 12.37 -2 8.74 -2 5 C-1.34 4.67 -0.68 4.34 0 4 C0 2.68 0 1.36 0 0 Z " fill="#CCCCCB" transform="translate(297,306)"/>
<path d="M0 0 C-0.99 0.495 -0.99 0.495 -2 1 C-4.54948225 5.64905587 -4.61749169 10.81600584 -5 16 C-5.99 16 -6.98 16 -8 16 C-8 11 -8 6 -8 1 C-5.29120665 -0.35439668 -2.99066732 -0.06501451 0 0 Z " fill="#F2F2F2" transform="translate(186,306)"/>
<path d="M0 0 C4.29 0 8.58 0 13 0 C13 0.99 13 1.98 13 3 C8.35150485 5.3992233 4.08913926 5.19957409 -1 5 C-0.67 3.35 -0.34 1.7 0 0 Z " fill="#E0E0E0" transform="translate(244,195)"/>
<path d="M0 0 C3.23948608 0.84905885 4.90715111 2.96987639 6.9375 5.5078125 C4.9575 4.8478125 2.9775 4.1878125 0.9375 3.5078125 C0.6075 4.1678125 0.2775 4.8278125 -0.0625 5.5078125 C-1.3825 4.8478125 -2.7025 4.1878125 -4.0625 3.5078125 C-4.0625 4.1678125 -4.0625 4.8278125 -4.0625 5.5078125 C-4.7225 5.5078125 -5.3825 5.5078125 -6.0625 5.5078125 C-6.3925 6.1678125 -6.7225 6.8278125 -7.0625 7.5078125 C-7.3925 6.8478125 -7.7225 6.1878125 -8.0625 5.5078125 C-9.0525 5.5078125 -10.0425 5.5078125 -11.0625 5.5078125 C-7.65165962 1.24426202 -5.3515196 -0.30406361 0 0 Z " fill="#BBBBBB" transform="translate(275.0625,304.4921875)"/>
<path d="M0 0 C3.60915845 0.48122113 6.22304562 0.2742095 9.75 -0.5 C9.375 1.4375 9.375 1.4375 8.75 3.5 C5.56225917 5.09387042 2.21072041 5.02663137 -1.25 4.5 C-3.75 2.5 -3.75 2.5 -5.25 0.5 C-3.25 -0.5 -3.25 -0.5 0 0 Z " fill="#B7B7B4" transform="translate(344.25,317.5)"/>
<path d="M0 0 C0.77321882 2.98241547 1.41196203 5.97580475 2 9 C2.66 7.68 3.32 6.36 4 5 C4.12375 5.639375 4.2475 6.27875 4.375 6.9375 C4.684375 7.9584375 4.684375 7.9584375 5 9 C5.66 9.33 6.32 9.66 7 10 C7 10.99 7 11.98 7 13 C8.65 13 10.3 13 12 13 C12 13.33 12 13.66 12 14 C4.87791495 14.60356653 4.87791495 14.60356653 1 11.9375 C-1.46241608 8.32082639 -1.48602588 6.29322859 -1 2 C-0.67 1.34 -0.34 0.68 0 0 Z " fill="#999999" transform="translate(133,308)"/>
<path d="M0 0 C0.25 2.29296875 0.25 2.29296875 0 5 C-1.75 6.80078125 -1.75 6.80078125 -4 8.3125 C-4.7425 8.82425781 -5.485 9.33601562 -6.25 9.86328125 C-6.8275 10.23839844 -7.405 10.61351562 -8 11 C-8 10.34 -8 9.68 -8 9 C-8.66 8.67 -9.32 8.34 -10 8 C-8.90653119 6.65787938 -7.7998425 5.32652025 -6.6875 4 C-5.76517578 2.88625 -5.76517578 2.88625 -4.82421875 1.75 C-3 0 -3 0 0 0 Z " fill="#DADADA" transform="translate(230,192)"/>
<path d="M0 0 C0.99 0 1.98 0 3 0 C3.19477739 1.62414378 3.38059458 3.24936423 3.5625 4.875 C3.66691406 5.77992188 3.77132813 6.68484375 3.87890625 7.6171875 C4 10 4 10 3 12 C2.01 12 1.02 12 0 12 C-1.12256131 9.75487738 -1.13413762 8.48543351 -1.125 6 C-1.12886719 4.948125 -1.12886719 4.948125 -1.1328125 3.875 C-1 2 -1 2 0 0 Z " fill="#E2E2E4" transform="translate(303,310)"/>
<path d="M0 0 C2 2 2 2 2.125 4.625 C2.08375 5.40875 2.0425 6.1925 2 7 C1.195625 7.28875 0.39125 7.5775 -0.4375 7.875 C-3.1326468 8.73262568 -3.1326468 8.73262568 -4 11 C-4.33 10.34 -4.66 9.68 -5 9 C-5.99 9.66 -6.98 10.32 -8 11 C-8.33 10.34 -8.66 9.68 -9 9 C-8.34 8.67 -7.68 8.34 -7 8 C-6.67 7.01 -6.34 6.02 -6 5 C-5.01 5.33 -4.02 5.66 -3 6 C-2.01 4.02 -1.02 2.04 0 0 Z " fill="#B8B8B7" transform="translate(214,309)"/>
<path d="M0 0 C1.670625 0.061875 1.670625 0.061875 3.375 0.125 C3.705 0.785 4.035 1.445 4.375 2.125 C3.385 2.62 3.385 2.62 2.375 3.125 C2.705 3.785 3.035 4.445 3.375 5.125 C3.28719597 7.16998425 3.13258462 9.21244948 2.9375 11.25 C2.83566406 12.34570312 2.73382813 13.44140625 2.62890625 14.5703125 C2.54511719 15.41335938 2.46132812 16.25640625 2.375 17.125 C2.045 17.125 1.715 17.125 1.375 17.125 C1.045 13.165 0.715 9.205 0.375 5.125 C-0.615 5.125 -1.605 5.125 -2.625 5.125 C-4.3125 3.625 -4.3125 3.625 -5.625 2.125 C-3.625 0.125 -3.625 0.125 0 0 Z " fill="#A9A9A7" transform="translate(175.625,304.875)"/>
<path d="M0 0 C2.64 0.33 5.28 0.66 8 1 C7.67 1.99 7.34 2.98 7 4 C6.34 4 5.68 4 5 4 C4.67 7.3 4.34 10.6 4 14 C3.67 14 3.34 14 3 14 C2.8046875 11.94921875 2.609375 9.8984375 2.4140625 7.84765625 C2.27742188 7.23792969 2.14078125 6.62820313 2 6 C1.34 5.67 0.68 5.34 0 5 C0 3.35 0 1.7 0 0 Z " fill="#D3D3D3" transform="translate(303,305)"/>
<path d="M0 0 C1.8871875 0.061875 1.8871875 0.061875 3.8125 0.125 C3.8125 0.455 3.8125 0.785 3.8125 1.125 C2.760625 1.16625 1.70875 1.2075 0.625 1.25 C-4.3892578 2.40081326 -5.19077189 4.10082225 -8.1875 8.125 C-8.8475 8.125 -9.5075 8.125 -10.1875 8.125 C-10.1875 11.095 -10.1875 14.065 -10.1875 17.125 C-11.5075 16.795 -12.8275 16.465 -14.1875 16.125 C-13.1975 16.125 -12.2075 16.125 -11.1875 16.125 C-11.23390625 15.44953125 -11.2803125 14.7740625 -11.328125 14.078125 C-11.62548376 6.72911554 -11.62548376 6.72911554 -9.375 3.625 C-3.90197197 -0.12793351 -3.90197197 -0.12793351 0 0 Z " fill="#B6B6B6" transform="translate(240.1875,304.875)"/>
<path d="M0 0 C0.33 0 0.66 0 1 0 C1.05386629 2.12472576 1.09273071 4.24983652 1.125 6.375 C1.14820313 7.55835938 1.17140625 8.74171875 1.1953125 9.9609375 C1 13 1 13 -1 15 C-2.80746134 13.19253866 -2.17303483 10.49554219 -2.1875 8.0625 C-2.20167969 6.98097656 -2.21585938 5.89945313 -2.23046875 4.78515625 C-2 2 -2 2 0 0 Z " fill="#FBFBFB" transform="translate(221,225)"/>
<path d="M0 0 C5.12583611 -0.10251672 9.94997778 -0.03590199 15 1 C13.68 1.33 12.36 1.66 11 2 C11.33 3.32 11.66 4.64 12 6 C9.03 5.67 6.06 5.34 3 5 C4.32 4.67 5.64 4.34 7 4 C7 3.01 7 2.02 7 1 C4.69 1 2.38 1 0 1 C0 0.67 0 0.34 0 0 Z " fill="#A6A6A6" transform="translate(250,194)"/>
<path d="M0 0 C2.0625 2 2.0625 2 3 4 C1.35 4.33 -0.3 4.66 -2 5 C-2.66 4.01 -3.32 3.02 -4 2 C-6.76276177 2.52268466 -9.3260876 3.10869587 -12 4 C-12 3.34 -12 2.68 -12 2 C-8.02499663 -0.65000225 -4.67879249 -0.74930382 0 0 Z " fill="#B5B5B5" transform="translate(261,305)"/>
<path d="M0 0 C0.33 0 0.66 0 1 0 C1 1.98 1 3.96 1 6 C1.99 6.33 2.98 6.66 4 7 C4.33 7.66 4.66 8.32 5 9 C7.01669827 10.13350534 7.01669827 10.13350534 9 11 C1.25 11.125 1.25 11.125 -1 10 C-1.625 7.9375 -1.625 7.9375 -2 6 C-1.34 6 -0.68 6 0 6 C0 4.02 0 2.04 0 0 Z " fill="#B3B3B3" transform="translate(251,311)"/>
<path d="M0 0 C1.258125 -0.04125 2.51625 -0.0825 3.8125 -0.125 C4.52019531 -0.14820313 5.22789062 -0.17140625 5.95703125 -0.1953125 C8 0 8 0 11 2 C11 2.99 11 3.98 11 5 C7.50765756 5.09978121 4.40562852 4.77842938 1 4 C1.33 3.34 1.66 2.68 2 2 C1.34 1.34 0.68 0.68 0 0 Z " fill="#B8B8B6" transform="translate(137,305)"/>
<path d="M0 0 C0.66 0.33 1.32 0.66 2 1 C0.515 2.485 0.515 2.485 -1 4 C-0.01 4.66 0.98 5.32 2 6 C-1.465 7.485 -1.465 7.485 -5 9 C-5 7.68 -5 6.36 -5 5 C-5.66 4.67 -6.32 4.34 -7 4 C-1.7265625 0.77734375 -1.7265625 0.77734375 0 0 Z " fill="#AFAFAF" transform="translate(235,187)"/>
<path d="M0 0 C0.66 0 1.32 0 2 0 C2 4.29 2 8.58 2 13 C1.01 13 0.02 13 -1 13 C-1.02686553 11.02090602 -1.04633375 9.04171029 -1.0625 7.0625 C-1.07410156 5.96035156 -1.08570313 4.85820312 -1.09765625 3.72265625 C-1 1 -1 1 0 0 Z " fill="#F8F8F8" transform="translate(216,306)"/>
<path d="M0 0 C0 0.66 0 1.32 0 2 C-1.32 2 -2.64 2 -4 2 C-4.33 3.32 -4.66 4.64 -5 6 C-6.32 5.34 -7.64 4.68 -9 4 C-9 2.68 -9 1.36 -9 0 C-5.93109813 -1.53445094 -3.29905734 -0.54984289 0 0 Z " fill="#B7B7B7" transform="translate(247,312)"/>
<path d="M0 0 C-0.375 1.9375 -0.375 1.9375 -1 4 C-4.21451269 5.60725635 -7.43612536 5.05748185 -11 5 C-9.68 4.67 -8.36 4.34 -7 4 C-7 3.34 -7 2.68 -7 2 C-4 0 -4 0 0 0 Z " fill="#B3B3B2" transform="translate(336,317)"/>
<path d="M0 0 C0 0.33 0 0.66 0 1 C-1.98 1 -3.96 1 -6 1 C-5.67 1.99 -5.34 2.98 -5 4 C-5.99 4.66 -6.98 5.32 -8 6 C-8 5.34 -8 4.68 -8 4 C-8.99 4 -9.98 4 -11 4 C-11 4.66 -11 5.32 -11 6 C-11.66 5.67 -12.32 5.34 -13 5 C-8.7797731 -0.27528362 -6.38501231 -0.54110274 0 0 Z " fill="#A0A09F" transform="translate(351,305)"/>
<path d="M0 0 C0.66 0.33 1.32 0.66 2 1 C1.67 1.99 1.34 2.98 1 4 C1.99 4.33 2.98 4.66 4 5 C-0.455 6.485 -0.455 6.485 -5 8 C-4.1875 4.5625 -4.1875 4.5625 -3 1 C-2.01 0.67 -1.02 0.34 0 0 Z " fill="#B9B9B9" transform="translate(242,196)"/>
<path d="M0 0 C0.33 1.32 0.66 2.64 1 4 C-1.95664519 5.4783226 -4.74229737 5.06032783 -8 5 C-8.33 4.01 -8.66 3.02 -9 2 C-7.329375 2.061875 -7.329375 2.061875 -5.625 2.125 C-1.95633975 2.41121859 -1.95633975 2.41121859 0 0 Z " fill="#DADADA" transform="translate(209,317)"/>
<path d="M0 0 C0 3 0 3 -1.71484375 4.97265625 C-2.44832031 5.66230469 -3.18179688 6.35195312 -3.9375 7.0625 C-6.86434414 9.73700793 -6.86434414 9.73700793 -9 13 C-9.66 13 -10.32 13 -11 13 C-9.5 10 -9.5 10 -8 7 C-7.34 7 -6.68 7 -6 7 C-6 6.34 -6 5.68 -6 5 C-5.34 5 -4.68 5 -4 5 C-3.67 4.01 -3.34 3.02 -3 2 C-2.01 1.34 -1.02 0.68 0 0 Z " fill="#9A9A9A" transform="translate(226,192)"/>
<path d="M0 0 C1.875 0.3125 1.875 0.3125 4 1 C4.66 1.99 5.32 2.98 6 4 C5.67 4.99 5.34 5.98 5 7 C4.01 7.33 3.02 7.66 2 8 C0.74335022 5.09399739 0 3.20395416 0 0 Z " fill="#E9E9E9" transform="translate(276,308)"/>
<path d="M0 0 C0.33 0.66 0.66 1.32 1 2 C1.66 2 2.32 2 3 2 C3 2.66 3 3.32 3 4 C3.99 4.33 4.98 4.66 6 5 C5.01 5.33 4.02 5.66 3 6 C3.33 7.32 3.66 8.64 4 10 C3.34 10 2.68 10 2 10 C2 9.34 2 8.68 2 8 C1.01 7.67 0.02 7.34 -1 7 C-0.34 6.67 0.32 6.34 1 6 C0.67 4.02 0.34 2.04 0 0 Z " fill="#AFAFAF" transform="translate(223,259)"/>
<path d="M0 0 C0.33 0.66 0.66 1.32 1 2 C1.66 2 2.32 2 3 2 C3 4.64 3 7.28 3 10 C2.01 10 1.02 10 0 10 C0 6.7 0 3.4 0 0 Z " fill="#FCFCFB" transform="translate(196,317)"/>
<path d="M0 0 C0 0.99 0 1.98 0 3 C-2.70879335 4.35439668 -5.00933268 4.06501451 -8 4 C-8 3.34 -8 2.68 -8 2 C-4.77208445 -0.1519437 -3.71599191 -0.20086443 0 0 Z " fill="#D4D4D3" transform="translate(148,317)"/>
<path d="M0 0 C0.99 0 1.98 0 3 0 C3 2.64 3 5.28 3 8 C1.68 8.33 0.36 8.66 -1 9 C-1.33 8.01 -1.66 7.02 -2 6 C-1.34 5.67 -0.68 5.34 0 5 C0 3.35 0 1.7 0 0 Z " fill="#D8D6D4" transform="translate(340,309)"/>
<path d="M0 0 C2.51083114 1.25541557 2.87125446 2.50063488 4 5 C2.35 5.66 0.7 6.32 -1 7 C-1 5.68 -1 4.36 -1 3 C-1.66 2.67 -2.32 2.34 -3 2 C-2.01 1.34 -1.02 0.68 0 0 Z " fill="#A6A6A6" transform="translate(270,257)"/>
<path d="M0 0 C1.2077558 3.62326739 0.54311128 4.64146369 -1 8 C-1.99 8 -2.98 8 -4 8 C-3.67 5.69 -3.34 3.38 -3 1 C-2.01 0.67 -1.02 0.34 0 0 Z " fill="#E5E5E5" transform="translate(267,309)"/>
<path d="M0 0 C2.475 0.99 2.475 0.99 5 2 C4.34 3.98 3.68 5.96 3 8 C0 6 0 6 -0.75 3.4375 C-0.8325 2.633125 -0.915 1.82875 -1 1 C-0.67 0.67 -0.34 0.34 0 0 Z " fill="#F5F5F5" transform="translate(209,308)"/>
<path d="M0 0 C2.64 0 5.28 0 8 0 C8.33 0.66 8.66 1.32 9 2 C6.36 2.99 3.72 3.98 1 5 C0.67 3.35 0.34 1.7 0 0 Z " fill="#C2C2C1" transform="translate(325,305)"/>
<path d="M0 0 C6.52307692 -0.36923077 6.52307692 -0.36923077 8.9375 1.5 C9.288125 1.995 9.63875 2.49 10 3 C9.01 3.495 9.01 3.495 8 4 C8 4.99 8 5.98 8 7 C6.68 5.68 5.36 4.36 4 3 C4.66 3 5.32 3 6 3 C6 2.34 6 1.68 6 1 C4.02 1 2.04 1 0 1 C0 0.67 0 0.34 0 0 Z " fill="#A4A4A3" transform="translate(201,305)"/>
<path d="M0 0 C6.75 -0.125 6.75 -0.125 9 1 C7.89131683 3.21736634 6.50559539 5.03617993 5 7 C4.87625 6.071875 4.87625 6.071875 4.75 5.125 C4.18741541 2.81562433 4.18741541 2.81562433 1.9375 1.75 C1.298125 1.5025 0.65875 1.255 0 1 C0 0.67 0 0.34 0 0 Z " fill="#B3B3B3" transform="translate(182,305)"/>
<path d="M0 0 C-0.33 1.32 -0.66 2.64 -1 4 C-3.31 4 -5.62 4 -8 4 C-4.5 0 -4.5 0 0 0 Z " fill="#D0CFD0" transform="translate(354,317)"/>
<path d="M0 0 C1.32 0.66 2.64 1.32 4 2 C3.01 2.33 2.02 2.66 1 3 C1 5.97 1 8.94 1 12 C-0.32 11.67 -1.64 11.34 -3 11 C-2.01 11 -1.02 11 0 11 C-0.08378906 10.28972656 -0.16757813 9.57945312 -0.25390625 8.84765625 C-0.35574219 7.92855469 -0.45757812 7.00945312 -0.5625 6.0625 C-0.66691406 5.14597656 -0.77132812 4.22945313 -0.87890625 3.28515625 C-0.91886719 2.53105469 -0.95882812 1.77695312 -1 1 C-0.67 0.67 -0.34 0.34 0 0 Z " fill="#8B8B8A" transform="translate(199,316)"/>
<path d="M0 0 C1.98 0 3.96 0 6 0 C6.33 1.65 6.66 3.3 7 5 C4.03824877 4.38722388 2.61941217 3.74627478 0 2 C0 1.34 0 0.68 0 0 Z " fill="#F3F2F1" transform="translate(291,306)"/>
<path d="M0 0 C0.99 0.33 1.98 0.66 3 1 C3.99 0.67 4.98 0.34 6 0 C6 0.99 6 1.98 6 3 C5.34 3.66 4.68 4.32 4 5 C3.67 5.99 3.34 6.98 3 8 C0 2.25 0 2.25 0 0 Z " fill="#939393" transform="translate(210,248)"/>
<path d="M0 0 C3.875 1.75 3.875 1.75 5 4 C3.68 4.99 2.36 5.98 1 7 C1 6.34 1 5.68 1 5 C0.01 4.67 -0.98 4.34 -2 4 C-1.34 3.67 -0.68 3.34 0 3 C0 2.01 0 1.02 0 0 Z " fill="#AFAFAF" transform="translate(247,217)"/>
<path d="M0 0 C0.99 0 1.98 0 3 0 C3 1.65 3 3.3 3 5 C2.01 5.33 1.02 5.66 0 6 C-0.66 5.67 -1.32 5.34 -2 5 C-1.34 3.35 -0.68 1.7 0 0 Z " fill="#E7E7E7" transform="translate(227,192)"/>
<path d="M0 0 C0.99 0 1.98 0 3 0 C3 0.99 3 1.98 3 3 C1.68 3 0.36 3 -1 3 C-1.33 4.32 -1.66 5.64 -2 7 C-2.66 6.67 -3.32 6.34 -4 6 C-4 5.34 -4 4.68 -4 4 C-3.34 4 -2.68 4 -2 4 C-1.34 2.68 -0.68 1.36 0 0 Z " fill="#F1F1F1" transform="translate(219,201)"/>
<path d="M0 0 C0.99 0.33 1.98 0.66 3 1 C2.67 1.99 2.34 2.98 2 4 C-0.31 4 -2.62 4 -5 4 C-2.6875 1.9375 -2.6875 1.9375 0 0 Z " fill="#A7A7A7" transform="translate(363,318)"/>
<path d="M0 0 C2 2 2 2 2.125 4.625 C2.08375 5.40875 2.0425 6.1925 2 7 C1.01 7.495 1.01 7.495 0 8 C0 7.34 0 6.68 0 6 C-0.66 6 -1.32 6 -2 6 C-1.49396008 3.83125748 -1.00016187 2.00032373 0 0 Z " fill="#939393" transform="translate(214,309)"/>
<path d="M0 0 C2 3 2 3 3 6 C2.01 6.495 2.01 6.495 1 7 C0.67 7.66 0.34 8.32 0 9 C-0.99 7.68 -1.98 6.36 -3 5 C-2.34 4.67 -1.68 4.34 -1 4 C-0.34786708 1.97536745 -0.34786708 1.97536745 0 0 Z " fill="#ACACAC" transform="translate(267,312)"/>
<path d="M0 0 C2.64 0 5.28 0 8 0 C8 0.99 8 1.98 8 3 C5.36 2.67 2.72 2.34 0 2 C0 1.34 0 0.68 0 0 Z " fill="#E8E7E5" transform="translate(345,306)"/>
<path d="M0 0 C0.33 0 0.66 0 1 0 C1 2.31 1 4.62 1 7 C-0.32 7.33 -1.64 7.66 -3 8 C-2.67 6.68 -2.34 5.36 -2 4 C-1.34 4 -0.68 4 0 4 C0 2.68 0 1.36 0 0 Z " fill="#B7B7B7" transform="translate(356,301)"/>
<path d="" fill="#000000" transform="translate(0,0)"/>
<path d="" fill="#000000" transform="translate(0,0)"/>
<path d="" fill="#FFFFFF" transform="translate(0,0)"/>
<path d="" fill="#000000" transform="translate(0,0)"/>
<path d="" fill="#000000" transform="translate(0,0)"/>
<path d="" fill="#000000" transform="translate(0,0)"/>
<path d="" fill="#000000" transform="translate(0,0)"/>
<path d="" fill="#000000" transform="translate(0,0)"/>
<path d="" fill="#000000" transform="translate(0,0)"/>
<path d="" fill="#000000" transform="translate(0,0)"/>
<path d="" fill="#000000" transform="translate(0,0)"/>
<path d="" fill="#000000" transform="translate(0,0)"/>
<path d="" fill="#000000" transform="translate(0,0)"/>
<path d="" fill="#000000" transform="translate(0,0)"/>
<path d="" fill="#000000" transform="translate(0,0)"/>
<path d="" fill="#000000" transform="translate(0,0)"/>
<path d="" fill="#000000" transform="translate(0,0)"/>
<path d="" fill="#000000" transform="translate(0,0)"/>
<path d="" fill="#000000" transform="translate(0,0)"/>
<path d="" fill="#000000" transform="translate(0,0)"/>
<path d="" fill="#000000" transform="translate(0,0)"/>
<path d="" fill="#000000" transform="translate(0,0)"/>
<path d="" fill="#000000" transform="translate(0,0)"/>
<path d="" fill="#000000" transform="translate(0,0)"/>
<path d="" fill="#000000" transform="translate(0,0)"/>
<path d="" fill="#000000" transform="translate(0,0)"/>
<path d="" fill="#000000" transform="translate(0,0)"/>
<path d="" fill="#000000" transform="translate(0,0)"/>
<path d="" fill="#000000" transform="translate(0,0)"/>
<path d="" fill="#000000" transform="translate(0,0)"/>
<path d="" fill="#000000" transform="translate(0,0)"/>
<path d="" fill="#000000" transform="translate(0,0)"/>
<path d="" fill="#000000" transform="translate(0,0)"/>
<path d="" fill="#000000" transform="translate(0,0)"/>
<path d="" fill="#000000" transform="translate(0,0)"/>
<path d="" fill="#000000" transform="translate(0,0)"/>
<path d="" fill="#000000" transform="translate(0,0)"/>
<path d="" fill="#000000" transform="translate(0,0)"/>
<path d="" fill="#000000" transform="translate(0,0)"/>
<path d="" fill="#000000" transform="translate(0,0)"/>
<path d="" fill="#000000" transform="translate(0,0)"/>
<path d="" fill="#000000" transform="translate(0,0)"/>
<path d="" fill="#000000" transform="translate(0,0)"/>
<path d="" fill="#000000" transform="translate(0,0)"/>
<path d="" fill="#000000" transform="translate(0,0)"/>
<path d="" fill="#000000" transform="translate(0,0)"/>
<path d="" fill="#000000" transform="translate(0,0)"/>
<path d="" fill="#000000" transform="translate(0,0)"/>
<path d="" fill="#000000" transform="translate(0,0)"/>
<path d="" fill="#000000" transform="translate(0,0)"/>
<path d="" fill="#000000" transform="translate(0,0)"/>
<path d="" fill="#000000" transform="translate(0,0)"/>
<path d="" fill="#000000" transform="translate(0,0)"/>
<path d="" fill="#000000" transform="translate(0,0)"/>
<path d="" fill="#000000" transform="translate(0,0)"/>
<path d="" fill="#FF0000" transform="translate(0,0)"/>
<path d="" fill="#000000" transform="translate(0,0)"/>
<path d="" fill="#000000" transform="translate(0,0)"/>
<path d="" fill="#000000" transform="translate(0,0)"/>
<path d="" fill="#000000" transform="translate(0,0)"/>
<path d="" fill="#000000" transform="translate(0,0)"/>
<path d="" fill="#000000" transform="translate(0,0)"/>
<path d="" fill="#000000" transform="translate(0,0)"/>
<path d="" fill="#000000" transform="translate(0,0)"/>
<path d="" fill="#000000" transform="translate(0,0)"/>
<path d="" fill="#000000" transform="translate(0,0)"/>
<path d="" fill="#000000" transform="translate(0,0)"/>
<path d="" fill="#000000" transform="translate(0,0)"/>
<path d="" fill="#000000" transform="translate(0,0)"/>
<path d="" fill="#000000" transform="translate(0,0)"/>
<path d="" fill="#000000" transform="translate(0,0)"/>
<path d="" fill="#000000" transform="translate(0,0)"/>
<path d="" fill="#000000" transform="translate(0,0)"/>
<path d="" fill="#000000" transform="translate(0,0)"/>
<path d="" fill="#000000" transform="translate(0,0)"/>
<path d="" fill="#000000" transform="translate(0,0)"/>
<path d="" fill="#000000" transform="translate(0,0)"/>
<path d="" fill="#000000" transform="translate(0,0)"/>
<path d="" fill="#000000" transform="translate(0,0)"/>
<path d="" fill="#000000" transform="translate(0,0)"/>
<path d="" fill="#000000" transform="translate(0,0)"/>
<path d="" fill="#000000" transform="translate(0,0)"/>
<path d="" fill="#000000" transform="translate(0,0)"/>
<path d="" fill="#000000" transform="translate(0,0)"/>
<path d="" fill="#000000" transform="translate(0,0)"/>
</svg>
